<svg width="48" height="48" viewBox="0 0 48 48" fill="none" xmlns="http://www.w3.org/2000/svg">
<path d="M35.5 13.8795C35.5 17.4951 34.0366 25.8589 31.6184 33.3537C30.4127 37.0906 29.0026 40.5052 27.4806 42.9551C26.7191 44.181 25.9688 45.1008 25.2558 45.6998C24.546 46.2962 23.9661 46.5 23.5 46.5C23.0339 46.5 22.454 46.2962 21.7442 45.6998C21.0312 45.1008 20.2809 44.181 19.5194 42.9551C17.9974 40.5052 16.5873 37.0906 15.3816 33.3537C12.9634 25.8589 11.5 17.4951 11.5 13.8795C11.5 7.00303 16.9115 1.5 23.5 1.5C30.0885 1.5 35.5 7.00303 35.5 13.8795Z" stroke="#152C5B" stroke-width="3"/>
<circle cx="23.5" cy="14.5" r="4" stroke="#FF4988" stroke-width="3"/>
</svg>
