<svg width="48" height="48" viewBox="0 0 48 48" fill="none" xmlns="http://www.w3.org/2000/svg">
<mask id="path-1-inside-1" fill="white">
<path fill-rule="evenodd" clip-rule="evenodd" d="M19.0979 10C18.4141 10 17.7777 10.3494 17.4106 10.9263L17.1759 11.295C15.7074 13.6026 13.1618 15 10.4266 15H6C2.68629 15 0 17.6863 0 21V39C0 42.3137 2.68629 45 6 45H42C45.3137 45 48 42.3137 48 39V21C48 17.6863 45.3137 15 42 15H38.5734C35.8382 15 33.2926 13.6026 31.8241 11.295L31.5894 10.9262C31.2223 10.3494 30.5859 10 29.9021 10H19.0979Z"/>
</mask>
<path d="M17.4106 10.9263L19.9416 12.5369L19.9416 12.5369L17.4106 10.9263ZM31.5894 10.9262L34.1204 9.31562V9.31562L31.5894 10.9262ZM31.8241 11.295L29.2931 12.9056L31.8241 11.295ZM19.9416 12.5369C19.758 12.8253 19.4398 13 19.0979 13V7C17.3884 7 15.7974 7.87338 14.8796 9.31563L19.9416 12.5369ZM19.7069 12.9056L19.9416 12.5369L14.8796 9.31562L14.6449 9.68438L19.7069 12.9056ZM6 18H10.4266V12H6V18ZM3 21C3 19.3431 4.34315 18 6 18V12C1.02944 12 -3 16.0294 -3 21H3ZM3 39V21H-3V39H3ZM6 42C4.34315 42 3 40.6569 3 39H-3C-3 43.9706 1.02944 48 6 48V42ZM42 42H6V48H42V42ZM45 39C45 40.6569 43.6569 42 42 42V48C46.9706 48 51 43.9706 51 39H45ZM45 21V39H51V21H45ZM42 18C43.6569 18 45 19.3431 45 21H51C51 16.0294 46.9706 12 42 12V18ZM38.5734 18H42V12H38.5734V18ZM29.0584 12.5369L29.2931 12.9056L34.3551 9.68438L34.1204 9.31562L29.0584 12.5369ZM29.9021 13C29.5602 13 29.242 12.8253 29.0584 12.5369L34.1204 9.31562C33.2026 7.87338 31.6116 7 29.9021 7V13ZM19.0979 13H29.9021V7H19.0979V13ZM38.5734 12C36.8639 12 35.2729 11.1266 34.3551 9.68438L29.2931 12.9056C31.3123 16.0786 34.8125 18 38.5734 18V12ZM14.6449 9.68438C13.7271 11.1266 12.1361 12 10.4266 12V18C14.1875 18 17.6878 16.0786 19.7069 12.9056L14.6449 9.68438Z" fill="#152C5B" mask="url(#path-1-inside-1)"/>
<circle cx="24" cy="30" r="6.5" stroke="#FF4988" stroke-width="3"/>
<path d="M42 21L34 21" stroke="#152C5B" stroke-width="3" stroke-linecap="round"/>
</svg>
