<svg width="27" height="27" viewBox="0 0 27 27" fill="none" xmlns="http://www.w3.org/2000/svg">
<rect width="27" height="27" fill="#BCC3D1"/>
<rect x="2" y="4" width="23" height="21" rx="2" stroke="white" stroke-width="2"/>
<mask id="path-2-inside-1" fill="white">
<rect x="4" y="12" width="5" height="5" rx="1"/>
</mask>
<rect x="4" y="12" width="5" height="5" rx="1" stroke="white" stroke-width="4" mask="url(#path-2-inside-1)"/>
<mask id="path-3-inside-2" fill="white">
<rect x="4" y="18" width="5" height="5" rx="1"/>
</mask>
<rect x="4" y="18" width="5" height="5" rx="1" stroke="white" stroke-width="4" mask="url(#path-3-inside-2)"/>
<mask id="path-4-inside-3" fill="white">
<rect x="11" y="18" width="5" height="5" rx="1"/>
</mask>
<rect x="11" y="18" width="5" height="5" rx="1" stroke="white" stroke-width="4" mask="url(#path-4-inside-3)"/>
<mask id="path-5-inside-4" fill="white">
<rect x="18" y="18" width="5" height="5" rx="1"/>
</mask>
<rect x="18" y="18" width="5" height="5" rx="1" stroke="white" stroke-width="4" mask="url(#path-5-inside-4)"/>
<mask id="path-6-inside-5" fill="white">
<rect x="18" y="12" width="5" height="5" rx="1"/>
</mask>
<rect x="18" y="12" width="5" height="5" rx="1" stroke="white" stroke-width="4" mask="url(#path-6-inside-5)"/>
<mask id="path-7-inside-6" fill="white">
<rect x="11" y="12" width="5" height="5" rx="1"/>
</mask>
<rect x="11" y="12" width="5" height="5" rx="1" stroke="white" stroke-width="4" mask="url(#path-7-inside-6)"/>
<path d="M26 9H1" stroke="white" stroke-width="2"/>
<path d="M4 6L4 1" stroke="white" stroke-width="2" stroke-linecap="round"/>
<path d="M23 6L23 1" stroke="white" stroke-width="2" stroke-linecap="round"/>
</svg>
