<svg width="21" height="20" viewBox="0 0 21 20" fill="none" xmlns="http://www.w3.org/2000/svg">
<path d="M8.50529 1.59495C9.10399 -0.247675 11.7108 -0.247674 12.3095 1.59495L13.2734 4.56154C13.5412 5.38559 14.3091 5.94351 15.1755 5.94351H18.2948C20.2322 5.94351 21.0378 8.42274 19.4704 9.56154L16.9468 11.395C16.2458 11.9043 15.9525 12.807 16.2203 13.6311L17.1842 16.5977C17.7829 18.4403 15.6739 19.9725 14.1065 18.8337L11.583 17.0003C10.882 16.491 9.9328 16.491 9.23183 17.0003L6.70829 18.8337C5.14087 19.9725 3.03191 18.4403 3.63061 16.5977L4.59451 13.6311C4.86226 12.807 4.56895 11.9043 3.86797 11.395L1.34443 9.56154C-0.222996 8.42274 0.58256 5.94351 2.52001 5.94351H5.63927C6.50572 5.94351 7.27363 5.38559 7.54138 4.56154L8.50529 1.59495Z" fill="#FFDA7A"/>
</svg>
