<svg width="48" height="48" viewBox="0 0 48 48" fill="none" xmlns="http://www.w3.org/2000/svg">
<rect width="48" height="48" fill="white"/>
<path d="M8.5 10C8.5 5.30558 12.3056 1.5 17 1.5H32C36.6944 1.5 40.5 5.30558 40.5 10V24.5H8.5V10Z" stroke="#152C5B" stroke-width="3"/>
<mask id="path-2-inside-1" fill="white">
<path d="M0 28C0 25.7909 1.79086 24 4 24H44C46.2091 24 48 25.7909 48 28V36C48 37.1046 47.1046 38 46 38H2C0.895431 38 0 37.1046 0 36V28Z"/>
</mask>
<path d="M0 28C0 25.7909 1.79086 24 4 24H44C46.2091 24 48 25.7909 48 28V36C48 37.1046 47.1046 38 46 38H2C0.895431 38 0 37.1046 0 36V28Z" stroke="#152C5B" stroke-width="6" mask="url(#path-2-inside-1)"/>
<path d="M43 38V46" stroke="#152C5B" stroke-width="3" stroke-linecap="round"/>
<path d="M5 38V46" stroke="#152C5B" stroke-width="3" stroke-linecap="round"/>
<path d="M41 41L7 41" stroke="#152C5B" stroke-width="3" stroke-linecap="round"/>
<path d="M12.5 18C12.5 16.6193 13.6193 15.5 15 15.5H19C20.3807 15.5 21.5 16.6193 21.5 18V24.5H12.5V18Z" stroke="#FF4988" stroke-width="3"/>
<path d="M27.5 18C27.5 16.6193 28.6193 15.5 30 15.5H34C35.3807 15.5 36.5 16.6193 36.5 18V24.5H27.5V18Z" stroke="#FF4988" stroke-width="3"/>
</svg>
